<!-- <svg xmlns="http://www.w3.org/2000/svg" width="16" height="16" viewBox="0 0 16 16">
  <path fill="#E7E7E7" fill-rule="evenodd" d="M7.513 13.376l-2.697 1.502a1 1 0 0 1-1.474-1.033l.543-3.35a1 1 0 0 0-.27-.855L1.277 7.225a1 1 0 0 1 .566-1.684l3.136-.483a1 1 0 0 0 .754-.566l1.361-2.921a1 1 0 0 1 1.813 0l1.362 2.921a1 1 0 0 0 .754.566l3.135.483a1 1 0 0 1 .567 1.684l-2.34 2.415a1 1 0 0 0-.269.856l.542 3.349a1 1 0 0 1-1.473 1.033l-2.698-1.502a1 1 0 0 0-.973 0z"/>
</svg> -->

<svg width="32" height="32" xmlns="http://www.w3.org/2000/svg">
  <path fill="#FEC41F" fill-rule="evenodd" d="M20.641 20.2a3 3 0 0 1 .81-2.572l3.479-3.579-4.667-.715a3 3 0 0 1-2.262-1.695L16 7.361l-2 4.278a3 3 0 0 1-2.263 1.695l-4.667.715 3.479 3.579a3 3 0 0 1 .81 2.572l-.8 4.925 3.985-2.212a3 3 0 0 1 2.911 0l3.986 2.212-.8-4.925zm-5.126 4.462l-5.79 3.212a1 1 0 0 1-1.471-1.035l1.13-6.96a1 1 0 0 0-.27-.857l-4.83-4.97a1 1 0 0 1 .565-1.685l6.584-1.01a1 1 0 0 0 .755-.565l2.906-6.215a1 1 0 0 1 1.812 0l2.906 6.215a1 1 0 0 0 .754.565l6.585 1.01a1 1 0 0 1 .565 1.685l-4.83 4.97a1 1 0 0 0-.27.857l1.13 6.96a1 1 0 0 1-1.472 1.035l-5.789-3.212a1 1 0 0 0-.97 0z"></path>
</svg>